<svg width="163" height="40" viewBox="0 0 163 40" fill="none" xmlns="http://www.w3.org/2000/svg">
<path d="M18.246 0.833344C18.9945 0.333343 19.9758 0.333343 20.7409 0.833344C22.6537 2.03334 24.4999 3.36668 26.2463 4.80001C26.2463 4.80001 26.7287 5.13334 26.7453 4.56668C26.6954 3.85001 26.7453 3.11668 26.8617 2.40001C26.9369 2.21854 27.0637 2.06327 27.2264 1.9536C27.3891 1.84393 27.5804 1.78471 27.7765 1.78334C27.7765 1.78334 29.9388 1.88334 31.3193 2.06668C31.6184 2.10273 31.8964 2.23941 32.1079 2.45437C32.3194 2.66932 32.4518 2.94983 32.4836 3.25001C32.4836 3.25001 33.3651 9.13334 33.5647 11.25C33.5647 11.25 33.731 12.3333 35.2945 14.1667C35.2945 14.1667 38.4879 18.6167 38.8539 19.4667C38.8539 19.4667 39.5857 21 38.0056 21.2C38.0056 21.2 35.0949 21.5 34.8121 21.5667C34.6251 21.5877 34.4539 21.6817 34.3356 21.8283C34.2173 21.9749 34.1614 22.1624 34.1801 22.35C34.1801 22.35 34.0138 32.5833 33.2819 37.4833C33.2819 37.4833 33.0823 39.4333 32.0012 39.4C32.0012 39.4 29.0073 39.3 28.3254 39.3167C28.3254 39.3167 28.026 39.3167 28.0593 38.9167C28.0593 38.9167 29.5895 22.9667 28.5582 14.9167C28.5582 14.9167 28.5083 13.8667 27.7266 13.6333C27.7266 13.6333 26.9948 13.35 26.2962 14.2667C23.2861 18.4682 21.6371 23.495 21.5725 28.6667C21.5725 28.6667 21.4894 31.2 21.8719 31.8333C21.8719 31.8333 22.1214 32.2833 23.3689 32.3833L24.9157 32.6C24.9157 32.6 25.2151 32.6 25.1818 32.9833C25.1818 32.9833 24.8325 37.65 24.7161 38.4833C24.7161 38.6833 24.6828 38.8667 24.6163 39.05C24.6163 39.05 24.5498 39.2 24.0674 39.1833C24.0674 39.1833 17.1649 39.1333 16.3831 39.1833C16.3831 39.1833 16.0505 39.1833 15.984 39.0167C15.9174 38.85 15.5016 32.9667 15.5182 32.1333C15.5182 31.9667 15.6014 31.8 15.7677 31.7333C16.2935 31.4043 16.7386 30.9607 17.0697 30.4355C17.4009 29.9103 17.6096 29.3171 17.6805 28.7C17.7637 27.8 17.7637 26.9167 17.7138 26.0333C17.7138 26.0333 17.9632 17.0333 18.0464 15.6C18.0464 15.6 18.0797 15.1167 17.4476 15.0333C17.295 14.9956 17.1337 15.0196 16.9985 15.1C16.8654 15.1827 16.7699 15.3143 16.7324 15.4667V15.5167C16.7324 15.5667 16.2833 21.4333 16.3665 23.7667C16.3665 23.7667 16.5328 25.3 15.4517 25.3333C15.4517 25.3333 14.4205 25.5 14.3706 24.2167C14.3706 24.2167 14.4538 18.45 14.7032 15.6167C14.7032 15.2833 14.4704 15.0167 14.1377 14.9833C13.9772 14.9587 13.8134 14.9969 13.6803 15.0899C13.5471 15.183 13.4548 15.3239 13.4225 15.4833V15.55C13.4225 15.55 12.9734 21.05 13.0566 23.95C13.0566 23.95 13.1897 25.3667 12.0587 25.3167C12.0587 25.3167 11.1272 25.4167 11.0607 24.1667C11.0607 24.1667 11.3268 16.3 11.3933 15.6833C11.3862 15.5321 11.3253 15.3884 11.2215 15.2784C11.1178 15.1683 10.9781 15.0991 10.8278 15.0833H10.7613C10.6013 15.0687 10.4417 15.1157 10.315 15.2148C10.1883 15.3139 10.1041 15.4576 10.0794 15.6167V15.6667C10.0794 15.6667 9.66355 25.1 9.71345 27.8667C9.71345 27.8667 9.68018 30.7 11.7925 31.8667C11.7925 31.8667 12.0919 32.0333 12.1085 32.3167C12.1085 32.3167 12.3414 37.3167 12.5576 38.9167C12.5576 38.9167 12.6408 39.3167 12.2915 39.3167L6.98569 39.45C6.71012 39.4505 6.44476 39.3456 6.24381 39.1566C6.04287 38.9677 5.92153 38.709 5.90457 38.4333C5.21138 33.1399 4.87796 27.8054 4.90661 22.4667C4.92848 22.2697 4.8781 22.0714 4.76487 21.9089C4.65164 21.7464 4.48329 21.6307 4.2912 21.5833C4.2912 21.5833 1.56345 21.3333 0.914773 21.1833C0.746855 21.138 0.591632 21.0545 0.461169 20.9393C0.330706 20.824 0.228517 20.6802 0.162545 20.519C0.0965727 20.3577 0.0685947 20.1834 0.0807853 20.0096C0.0929759 19.8358 0.145007 19.6671 0.232834 19.5167C4.64973 11.9319 10.8293 5.52815 18.246 0.85001V0.833344ZM55.6029 15.6333H50.3637C48.6671 15.6333 48.6671 15.6333 48.3178 17.6167C47.9519 19.5833 47.9686 19.65 49.5154 19.65H52.6257L50.8626 29.75C50.4302 32 49.4489 33.55 46.4051 34.4667C45.6233 34.6833 45.4071 34.9667 45.4071 35.3C45.4737 35.8833 45.64 36.4333 45.9061 36.9333C46.4051 38.1333 46.6878 38.35 47.1037 38.35C47.6026 38.3 48.1016 38.2 48.6006 38.0667C52.9251 36.65 54.6881 33.3333 55.3867 29.4L57.3826 18.0333C57.7153 15.6333 57.7153 15.6333 55.6029 15.6333ZM73.35 15.6333C71.2376 15.6333 71.2376 15.6333 70.9549 17.4L69.4247 26.5667C68.9922 29.25 68.2936 30.8 65.6657 30.8C63.0544 30.8 62.2061 29.25 62.6219 26.85L64.1189 18.1C64.5347 15.6333 64.4515 15.6333 62.2893 15.6333C60.0771 15.6333 60.0771 15.6333 59.7944 17.3333L58.2475 26.5C57.3161 31.7167 60.5761 34.95 65.1833 34.95C70.3395 34.95 72.9508 32.6333 73.7991 27.1333L75.3625 18.0333C75.6952 15.6333 75.5788 15.6333 73.3666 15.6333H73.35ZM83.0468 30.6667C84.7433 30.5833 85.6581 29.8167 85.6581 29.05C85.6581 28.05 84.4606 27.7167 82.8306 27.2167C79.6537 26.2167 76.743 25.1 76.743 21.7167C76.743 17.6833 80.0696 15.5 84.2444 15.5C85.9076 15.5 87.6042 15.5667 89.2674 15.7167C90.3984 15.85 90.6812 16.2167 90.3319 17.9667C89.966 19.7333 89.5502 19.8667 88.5689 19.8C87.3547 19.7333 85.7912 19.5833 83.9616 19.5833C81.8493 19.5833 81.2006 20.3667 81.2006 21.0833C81.2006 21.9833 82.0489 22.4833 84.0281 23.05C87.704 24.1 90.1157 25.5833 90.1157 28.7667C90.1157 32.5 87.3547 34.6833 82.8971 34.8167C80.7681 34.9 78.6392 34.7833 76.5268 34.4833C75.113 34.2667 75.0299 34.2667 75.3958 32.2167C75.7451 30.3833 75.7451 30.25 77.0923 30.3833C79.055 30.6333 81.0509 30.7167 83.0302 30.6667H83.0468ZM106.166 15.6333H94.224C92.5274 15.6333 92.5274 15.6333 92.1615 17.6833C91.8122 19.7333 91.8954 19.7333 93.3757 19.7333H97.2677L95.0722 32.3833C94.6398 34.85 94.7229 34.85 96.9018 34.85C98.9643 34.85 99.0308 34.85 99.3135 33.0833L101.576 19.75H105.335C107.014 19.75 107.014 19.75 107.38 17.7167C107.73 15.6667 107.713 15.6667 106.166 15.6667V15.6333ZM127.256 19.6833C128.953 19.6833 128.953 19.6833 129.302 17.6333C129.668 15.6 129.652 15.6 128.105 15.6H119.539C116.495 15.6 116.578 15.6 116.079 18.6333L113.884 31.3833C113.318 34.7167 113.385 34.7167 116.429 34.7167H124.778C126.558 34.7167 126.475 34.7167 126.841 32.7167C127.173 30.75 127.173 30.6833 125.626 30.6833H118.424L118.99 27.0167H125.011C126.624 27.0167 126.624 27.0167 126.907 25.1167C127.19 23.2 127.19 23.1333 124.994 23.1333H119.689L120.271 19.6833H127.256ZM136.288 26.4333L139.049 20.3667C139.265 19.8667 139.265 19.8667 139.614 19.8667C139.964 19.8667 139.964 19.8667 140.047 20.4333L140.879 26.4333H136.288ZM143.773 17.9667C143.373 15.5667 143.373 15.5667 139.964 15.5667C136.787 15.5667 136.853 15.5667 135.855 17.55L128.703 32.4333C127.656 34.5333 127.872 34.75 130.483 34.75C132.546 34.75 132.546 34.75 133.394 32.85L134.508 30.3H141.444L141.793 32.85C142.093 34.75 142.159 34.75 144.205 34.75C146.534 34.75 146.75 34.6167 146.334 32.2833L143.789 17.9667H143.773ZM160.705 15.6333H148.696C146.999 15.6333 146.999 15.6333 146.65 17.6833C146.301 19.7333 146.367 19.7333 147.848 19.7333H151.74L149.544 32.3833C149.128 34.85 149.195 34.85 151.374 34.85C153.436 34.85 153.503 34.85 153.785 33.0833L156.064 19.75H159.807C161.503 19.75 161.503 19.75 161.852 17.7167C162.202 15.6667 162.285 15.6667 160.721 15.6667" fill="#FF8000"/>
</svg>
