<svg width="106" height="26" viewBox="0 0 106 26" fill="none" xmlns="http://www.w3.org/2000/svg">
<path d="M11.8655 0.541663C12.3522 0.216663 12.9904 0.216663 13.488 0.541663C14.7318 1.32166 15.9324 2.18833 17.0682 3.12C17.0682 3.12 17.3818 3.33666 17.3926 2.96833C17.3602 2.5025 17.3926 2.02583 17.4684 1.56C17.5172 1.44204 17.5997 1.34111 17.7055 1.26983C17.8113 1.19854 17.9358 1.16005 18.0633 1.15916C18.0633 1.15916 19.4694 1.22416 20.3671 1.34333C20.5616 1.36676 20.7424 1.45561 20.88 1.59533C21.0175 1.73505 21.1036 1.91738 21.1243 2.1125C21.1243 2.1125 21.6975 5.93666 21.8273 7.3125C21.8273 7.3125 21.9355 8.01666 22.9522 9.20833C22.9522 9.20833 25.029 12.1008 25.2669 12.6533C25.2669 12.6533 25.7429 13.65 24.7153 13.78C24.7153 13.78 22.8224 13.975 22.6386 14.0183C22.517 14.032 22.4056 14.0931 22.3287 14.1884C22.2517 14.2837 22.2154 14.4055 22.2275 14.5275C22.2275 14.5275 22.1194 21.1792 21.6435 24.3642C21.6435 24.3642 21.5137 25.6317 20.8106 25.61C20.8106 25.61 18.8637 25.545 18.4202 25.5558C18.4202 25.5558 18.2255 25.5558 18.2471 25.2958C18.2471 25.2958 19.2422 14.9283 18.5716 9.69583C18.5716 9.69583 18.5392 9.01333 18.0308 8.86166C18.0308 8.86166 17.5549 8.6775 17.1006 9.27333C15.1431 12.0043 14.0708 15.2718 14.0288 18.6333C14.0288 18.6333 13.9747 20.28 14.2235 20.6917C14.2235 20.6917 14.3857 20.9842 15.1969 21.0492L16.2029 21.19C16.2029 21.19 16.3975 21.19 16.3759 21.4392C16.3759 21.4392 16.1488 24.4725 16.0731 25.0142C16.0731 25.1442 16.0514 25.2633 16.0082 25.3825C16.0082 25.3825 15.9649 25.48 15.6512 25.4692C15.6512 25.4692 11.1624 25.4367 10.6541 25.4692C10.6541 25.4692 10.4377 25.4692 10.3945 25.3608C10.3512 25.2525 10.0808 21.4283 10.0916 20.8867C10.0916 20.7783 10.1457 20.67 10.2539 20.6267C10.5958 20.4128 10.8852 20.1244 11.1006 19.7831C11.3159 19.4417 11.4517 19.0561 11.4977 18.655C11.5518 18.07 11.5518 17.4958 11.5194 16.9217C11.5194 16.9217 11.6816 11.0717 11.7357 10.14C11.7357 10.14 11.7573 9.82583 11.3463 9.77166C11.2471 9.74715 11.1422 9.76272 11.0543 9.815C10.9677 9.86871 10.9056 9.95427 10.8812 10.0533V10.0858C10.8812 10.1183 10.5892 13.9317 10.6433 15.4483C10.6433 15.4483 10.7514 16.445 10.0484 16.4667C10.0484 16.4667 9.37775 16.575 9.3453 15.7408C9.3453 15.7408 9.39938 11.9925 9.56163 10.1508C9.56163 9.93416 9.4102 9.76083 9.19387 9.73916C9.08951 9.72313 8.98299 9.74795 8.89639 9.80845C8.8098 9.86896 8.74978 9.96053 8.72877 10.0642V10.1075C8.72877 10.1075 8.43673 13.6825 8.49081 15.5675C8.49081 15.5675 8.57734 16.4883 7.84183 16.4558C7.84183 16.4558 7.23612 16.5208 7.19285 15.7083C7.19285 15.7083 7.36591 10.595 7.40918 10.1942C7.40454 10.0959 7.3649 10.0025 7.29743 9.93093C7.22997 9.85939 7.13914 9.81441 7.04142 9.80416H6.99816C6.89409 9.79466 6.79031 9.82521 6.70793 9.8896C6.62555 9.954 6.57076 10.0474 6.55469 10.1508V10.1833C6.55469 10.1833 6.28428 16.315 6.31673 18.1133C6.31673 18.1133 6.2951 19.955 7.66877 20.7133C7.66877 20.7133 7.86346 20.8217 7.87428 21.0058C7.87428 21.0058 8.02571 24.2558 8.16632 25.2958C8.16632 25.2958 8.2204 25.5558 7.99326 25.5558L4.54285 25.6425C4.36365 25.6428 4.19108 25.5746 4.0604 25.4518C3.92973 25.329 3.85082 25.1608 3.83979 24.9817C3.389 21.5409 3.17218 18.0735 3.19081 14.6033C3.20503 14.4753 3.17227 14.3464 3.09864 14.2408C3.025 14.1351 2.91552 14.0599 2.79061 14.0292C2.79061 14.0292 1.01673 13.8667 0.594892 13.7692C0.485694 13.7397 0.384752 13.6854 0.299911 13.6105C0.21507 13.5356 0.148616 13.4421 0.105714 13.3373C0.0628115 13.2325 0.0446173 13.1192 0.0525449 13.0062C0.0604725 12.8932 0.0943085 12.7836 0.151423 12.6858C3.02376 7.75572 7.04237 3.59329 11.8655 0.552496V0.541663ZM36.159 10.1617H32.7518C31.6486 10.1617 31.6486 10.1617 31.4214 11.4508C31.1835 12.7292 31.1943 12.7725 32.2002 12.7725H34.2229L33.0763 19.3375C32.7951 20.8 32.1569 21.8075 30.1775 22.4033C29.6692 22.5442 29.5286 22.7283 29.5286 22.945C29.5718 23.3242 29.68 23.6817 29.8531 24.0067C30.1775 24.7867 30.3614 24.9275 30.6318 24.9275C30.9563 24.895 31.2808 24.83 31.6053 24.7433C34.4175 23.8225 35.5641 21.6667 36.0184 19.11L37.3163 11.7217C37.5326 10.1617 37.5326 10.1617 36.159 10.1617ZM47.7 10.1617C46.3263 10.1617 46.3263 10.1617 46.1424 11.31L45.1473 17.2683C44.8661 19.0125 44.4118 20.02 42.7028 20.02C41.0047 20.02 40.4531 19.0125 40.7235 17.4525L41.6969 11.765C41.9673 10.1617 41.9133 10.1617 40.5071 10.1617C39.0686 10.1617 39.0686 10.1617 38.8847 11.2667L37.8788 17.225C37.2731 20.6158 39.3931 22.7175 42.3892 22.7175C45.7422 22.7175 47.4404 21.2117 47.992 17.6367L49.0088 11.7217C49.2251 10.1617 49.1494 10.1617 47.7108 10.1617H47.7ZM54.0059 19.9333C55.1092 19.8792 55.7041 19.3808 55.7041 18.8825C55.7041 18.2325 54.9253 18.0158 53.8653 17.6908C51.7994 17.0408 49.9065 16.315 49.9065 14.1158C49.9065 11.4942 52.0698 10.075 54.7847 10.075C55.8663 10.075 56.9696 10.1183 58.0512 10.2158C58.7867 10.3025 58.9706 10.5408 58.7435 11.6783C58.5055 12.8267 58.2351 12.9133 57.5969 12.87C56.8073 12.8267 55.7906 12.7292 54.6008 12.7292C53.2271 12.7292 52.8053 13.2383 52.8053 13.7042C52.8053 14.2892 53.3569 14.6142 54.6441 14.9825C57.0345 15.665 58.6028 16.6292 58.6028 18.6983C58.6028 21.125 56.8073 22.5442 53.9086 22.6308C52.5241 22.685 51.1396 22.6092 49.7659 22.4142C48.8465 22.2733 48.7924 22.2733 49.0304 20.9408C49.2575 19.7492 49.2575 19.6625 50.1337 19.7492C51.41 19.9117 52.7079 19.9658 53.9951 19.9333H54.0059ZM69.0406 10.1617H61.2745C60.1712 10.1617 60.1712 10.1617 59.9333 11.4942C59.7061 12.8267 59.7602 12.8267 60.7228 12.8267H63.2539L61.8261 21.0492C61.5449 22.6525 61.599 22.6525 63.0159 22.6525C64.3571 22.6525 64.4004 22.6525 64.5843 21.5042L66.0553 12.8375H68.4998C69.5922 12.8375 69.5922 12.8375 69.8302 11.5158C70.0573 10.1833 70.0465 10.1833 69.0406 10.1833V10.1617ZM82.7557 12.7942C83.859 12.7942 83.859 12.7942 84.0861 11.4617C84.3241 10.14 84.3132 10.14 83.3073 10.14H77.7369C75.7575 10.14 75.8116 10.14 75.4871 12.1117L74.0594 20.3992C73.6916 22.5658 73.7349 22.5658 75.7143 22.5658H81.1441C82.3014 22.5658 82.2473 22.5658 82.4853 21.2658C82.7016 19.9875 82.7016 19.9442 81.6957 19.9442H77.0122L77.38 17.5608H81.2955C82.3447 17.5608 82.3447 17.5608 82.5286 16.3258C82.7124 15.08 82.7124 15.0367 81.2847 15.0367H77.8343L78.2128 12.7942H82.7557ZM88.629 17.1817L90.4245 13.2383C90.5651 12.9133 90.5651 12.9133 90.7922 12.9133C91.0194 12.9133 91.0194 12.9133 91.0735 13.2817L91.6143 17.1817H88.629ZM93.4963 11.6783C93.2367 10.1183 93.2367 10.1183 91.0194 10.1183C88.9535 10.1183 88.9967 10.1183 88.3477 11.4075L83.6967 21.0817C83.0153 22.4467 83.1559 22.5875 84.8541 22.5875C86.1953 22.5875 86.1953 22.5875 86.7469 21.3525L87.4716 19.695H91.982L92.2092 21.3525C92.4039 22.5875 92.4471 22.5875 93.7775 22.5875C95.2918 22.5875 95.4324 22.5008 95.162 20.9842L93.5071 11.6783H93.4963ZM104.507 10.1617H96.698C95.5947 10.1617 95.5947 10.1617 95.3675 11.4942C95.1404 12.8267 95.1837 12.8267 96.1463 12.8267H98.6773L97.2496 21.0492C96.9792 22.6525 97.0224 22.6525 98.4394 22.6525C99.7806 22.6525 99.8239 22.6525 100.008 21.5042L101.49 12.8375H103.923C105.027 12.8375 105.027 12.8375 105.254 11.5158C105.481 10.1833 105.535 10.1833 104.518 10.1833" fill="white"/>
</svg>
